<?xml version="1.0" encoding="UTF-8"?>
<svg width="26px" height="26px" viewBox="0 0 26 26" version="1.1" xmlns="http://www.w3.org/2000/svg" xmlns:xlink="http://www.w3.org/1999/xlink">
    <g id="Intro" stroke="none" stroke-width="1" fill="none" fill-rule="evenodd">
        <path d="M18.4673528,16.2232704 L17.3381361,16.2232704 L16.9379074,15.8373356 C18.3387078,14.207833 19.1820469,12.0923385 19.1820469,9.7910234 C19.1820469,4.6595197 15.0225272,0.5 9.8910234,0.5 C4.7595197,0.5 0.6,4.6595197 0.6,9.7910234 C0.6,14.9225272 4.7595197,19.0820469 9.8910234,19.0820469 C12.1923385,19.0820469 14.307833,18.2387078 15.9373356,16.8379074 L16.3232704,17.2381361 L16.3232704,18.3673528 L23.4702115,25.5 L25.6,23.3702115 L18.4673528,16.2232704 Z M9.8910234,16.2232704 C6.3318468,16.2232704 3.45877644,13.3502001 3.45877644,9.7910234 C3.45877644,6.2318468 6.3318468,3.35877644 9.8910234,3.35877644 C13.4502001,3.35877644 16.3232704,6.2318468 16.3232704,9.7910234 C16.3232704,13.3502001 13.4502001,16.2232704 9.8910234,16.2232704 Z" id="Shape" fill="#aaaaaa" fill-rule="nonzero"></path>
    </g>
</svg>